<?xml version="1.0" encoding="UTF-8"?>
<!DOCTYPE svg PUBLIC "-//W3C//DTD SVG 1.1//EN" "http://www.w3.org/Graphics/SVG/1.1/DTD/svg11.dtd">
<svg xmlns="http://www.w3.org/2000/svg" version="1.1" width="142px" height="142px" style="shape-rendering:geometricPrecision; text-rendering:geometricPrecision; image-rendering:optimizeQuality; fill-rule:evenodd; clip-rule:evenodd" xmlns:xlink="http://www.w3.org/1999/xlink">
<g><path style="opacity:1" fill="#fbd427" d="M 101.5,22.5 C 101.47,23.4972 101.97,24.1639 103,24.5C 108.078,26.5717 113.244,27.2384 118.5,26.5C 121.076,27.8834 120.742,28.7167 117.5,29C 118.448,29.4828 119.448,29.6495 120.5,29.5C 120.301,32.941 120.801,36.2744 122,39.5C 122.495,37.5273 122.662,35.5273 122.5,33.5C 124.223,35.78 124.889,38.4467 124.5,41.5C 123.522,41.811 122.855,42.4777 122.5,43.5C 123.641,44.4255 123.641,45.2588 122.5,46C 123.044,46.7172 123.711,47.2172 124.5,47.5C 124.665,50.5184 124.498,53.5184 124,56.5C 123.722,57.4158 123.222,58.0825 122.5,58.5C 122.662,56.4727 122.495,54.4727 122,52.5C 120.822,61.2494 119.322,69.9161 117.5,78.5C 115.431,82.2089 114.265,86.2089 114,90.5C 115.247,88.1192 115.58,88.4525 115,91.5C 113.667,93.5 112.333,95.5 111,97.5C 110.016,95.2053 109.183,95.5386 108.5,98.5C 109.167,98.8333 109.833,99.1667 110.5,99.5C 109.995,100.919 108.995,101.585 107.5,101.5C 107.167,100.167 106.833,100.167 106.5,101.5C 105.662,101.842 105.328,102.508 105.5,103.5C 104.662,103.842 104.328,104.508 104.5,105.5C 103.167,105.833 103.167,106.167 104.5,106.5C 102.812,110.188 100.145,112.855 96.5,114.5C 96.5,114.167 96.5,113.833 96.5,113.5C 95.8333,113.5 95.5,113.833 95.5,114.5C 94.5084,114.328 93.8417,114.662 93.5,115.5C 91.5,115.5 90.5,116.5 90.5,118.5C 89.5084,118.328 88.8417,118.662 88.5,119.5C 87.5084,119.328 86.8417,119.662 86.5,120.5C 83.8333,120.833 83.8333,121.167 86.5,121.5C 85.354,124.517 83.854,124.851 82,122.5C 79.4276,123.692 76.7609,124.692 74,125.5C 72.7425,125.85 72.4092,126.517 73,127.5C 74.0113,126.663 75.1779,126.33 76.5,126.5C 75.1016,128.533 73.1016,129.533 70.5,129.5C 67.8984,129.533 65.8984,128.533 64.5,126.5C 65.8221,126.33 66.9887,126.663 68,127.5C 68.5908,126.517 68.2575,125.85 67,125.5C 64.2391,124.692 61.5724,123.692 59,122.5C 57.7299,124.836 56.2299,124.836 54.5,122.5C 55.0253,121.808 55.6919,121.308 56.5,121C 54.5932,119.878 52.5932,119.045 50.5,118.5C 50.5,116.5 49.5,115.5 47.5,115.5C 46.7095,114.599 45.7095,113.932 44.5,113.5C 44.5,111.5 43.5,110.5 41.5,110.5C 41.5,109.833 41.1667,109.5 40.5,109.5C 39.968,106.54 39.3013,106.207 38.5,108.5C 36.7673,107.992 36.434,107.159 37.5,106C 36.6383,103.266 35.805,103.099 35,105.5C 33.0806,103.309 31.7473,100.976 31,98.5C 31.6543,99.6956 32.1543,99.6956 32.5,98.5C 31.8169,95.5386 30.9836,95.2053 30,97.5C 27.4289,95.0244 25.9289,92.0244 25.5,88.5C 26.2216,88.9175 26.7216,89.5842 27,90.5C 26.7353,86.2089 25.5686,82.2089 23.5,78.5C 23.5,77.8333 23.1667,77.5 22.5,77.5C 21.5276,70.1913 20.6942,62.8579 20,55.5C 19.7679,54.2625 19.2679,53.2625 18.5,52.5C 19.6802,48.898 19.6802,44.898 18.5,40.5C 20.0823,37.1244 20.7489,33.4578 20.5,29.5C 24.449,29.3068 24.449,28.8068 20.5,28C 21.2438,26.9614 22.2438,26.4614 23.5,26.5C 23.5,27.1667 23.8333,27.5 24.5,27.5C 28.553,26.9873 32.553,26.154 36.5,25C 38.1193,24.7645 39.1193,23.9311 39.5,22.5C 43.244,22.3147 46.9106,21.648 50.5,20.5C 51.9317,20.2668 52.4317,19.6001 52,18.5C 46.3314,19.7095 46.1647,19.2095 51.5,17C 52.8333,16.3333 54.1667,16.3333 55.5,17C 54.5494,17.7175 54.3828,18.5509 55,19.5C 58.5248,17.4875 62.3581,16.1542 66.5,15.5C 67.9317,15.2668 68.4317,14.6001 68,13.5C 66.6124,14.5536 65.1124,14.7203 63.5,14C 68.1667,10.6667 72.8333,10.6667 77.5,14C 75.8876,14.7203 74.3876,14.5536 73,13.5C 72.5683,14.6001 73.0683,15.2668 74.5,15.5C 78.6419,16.1542 82.4752,17.4875 86,19.5C 86.6172,18.5509 86.4506,17.7175 85.5,17C 88.4636,16.4314 91.1302,17.0981 93.5,19C 91.8876,19.7203 90.3876,19.5536 89,18.5C 88.5683,19.6001 89.0683,20.2668 90.5,20.5C 94.0894,21.648 97.756,22.3147 101.5,22.5 Z M 99.5,110.5 C 98.8333,111.833 97.8333,112.833 96.5,113.5C 96.5,111.5 97.5,110.5 99.5,110.5 Z"/></g>
<g><path style="opacity:1" fill="#c33326" d="M 99.5,27.5 C 98.4324,28.4345 97.099,28.7678 95.5,28.5C 93.4458,28.3653 91.7791,29.032 90.5,30.5C 90.631,29.7611 90.4643,29.0944 90,28.5C 89.0812,30.2393 87.9145,30.906 86.5,30.5C 83.8375,28.7319 80.8375,28.0653 77.5,28.5C 77.5,33.1667 77.5,37.8333 77.5,42.5C 78.1834,44.1765 79.5168,44.8432 81.5,44.5C 79.7056,45.2329 78.0389,46.2329 76.5,47.5C 76.7373,46.209 76.404,45.209 75.5,44.5C 75.5,43.8333 75.5,43.1667 75.5,42.5C 75.5,37.8333 75.5,33.1667 75.5,28.5C 74.448,28.3505 73.448,28.5172 72.5,29C 73.6023,31.4009 73.769,33.9009 73,36.5C 72.1553,34.3885 71.322,32.3885 70.5,30.5C 69.4479,28.744 67.7812,28.0773 65.5,28.5C 65.8242,32.5546 65.4909,36.5546 64.5,40.5C 63.478,37.5589 62.6446,34.5589 62,31.5C 60.4348,28.1057 58.4348,27.7723 56,30.5C 54.846,34.447 54.0127,38.447 53.5,42.5C 54.5,42.5 55.5,42.5 56.5,42.5C 56.2746,40.2841 57.1079,38.6174 59,37.5C 59.7568,39.3146 60.5902,40.9812 61.5,42.5C 58.3601,43.6408 55.0267,43.8075 51.5,43C 52.7119,41.8932 52.3786,41.3932 50.5,41.5C 52.6825,37.7412 52.8491,33.7412 51,29.5C 48.2576,29.7253 45.4243,29.3919 42.5,28.5C 42.5,33.1667 42.5,37.8333 42.5,42.5C 42.1384,37.5792 41.1384,32.9126 39.5,28.5C 49.5999,24.7192 59.9332,21.3858 70.5,18.5C 80.0807,21.693 89.7474,24.693 99.5,27.5 Z"/></g>
<g><path style="opacity:0.005" fill="#ffea28" d="M 101.5,22.5 C 103.128,21.1472 104.462,21.4805 105.5,23.5C 104.041,23.5674 102.708,23.2341 101.5,22.5 Z"/></g>
<g><path style="opacity:0.008" fill="#ffea40" d="M 39.5,22.5 C 38.2921,23.2341 36.9587,23.5674 35.5,23.5C 36.5383,21.4805 37.8716,21.1472 39.5,22.5 Z"/></g>
<g><path style="opacity:0.016" fill="#ffd71c" d="M 35.5,23.5 C 34.3991,24.5983 33.0657,24.765 31.5,24C 32.6819,22.2317 34.0152,22.0651 35.5,23.5 Z"/></g>
<g><path style="opacity:0.012" fill="#ffaf0b" d="M 105.5,23.5 C 106.985,22.0651 108.318,22.2317 109.5,24C 107.934,24.765 106.601,24.5983 105.5,23.5 Z"/></g>
<g><path style="opacity:0.012" fill="#ffa035" d="M 24.5,27.5 C 23.8333,27.5 23.5,27.1667 23.5,26.5C 24.6009,25.4017 25.9343,25.235 27.5,26C 26.2625,26.2321 25.2625,26.7321 24.5,27.5 Z"/></g>
<g><path style="opacity:1" fill="#f0bc24" d="M 50.5,41.5 C 47.9455,42.388 45.2788,42.7214 42.5,42.5C 42.5,37.8333 42.5,33.1667 42.5,28.5C 45.4243,29.3919 48.2576,29.7253 51,29.5C 52.8491,33.7412 52.6825,37.7412 50.5,41.5 Z"/></g>
<g><path style="opacity:0.012" fill="#ffe72a" d="M 18.5,34.5 C 17.0449,32.6898 17.2116,31.0231 19,29.5C 19.7796,31.3869 19.6129,33.0536 18.5,34.5 Z"/></g>
<g><path style="opacity:0.012" fill="#fffe32" d="M 122.5,33.5 C 121.402,32.3991 121.235,31.0657 122,29.5C 123.768,30.6819 123.935,32.0152 122.5,33.5 Z"/></g>
<g><path style="opacity:1" fill="#c43b26" d="M 46.5,31.5 C 48.4646,31.9483 48.7979,32.9483 47.5,34.5C 46.6143,33.675 46.281,32.675 46.5,31.5 Z"/></g>
<g><path style="opacity:1" fill="#f0bf24" d="M 86.5,30.5 C 88.3722,34.9197 87.3722,38.5863 83.5,41.5C 81.5914,42.3482 79.5914,42.6816 77.5,42.5C 77.5,37.8333 77.5,33.1667 77.5,28.5C 80.8375,28.0653 83.8375,28.7319 86.5,30.5 Z"/></g>
<g><path style="opacity:1" fill="#be1926" d="M 81.5,31.5 C 83.9506,33.9162 84.1173,36.5829 82,39.5C 81.5026,36.854 81.3359,34.1873 81.5,31.5 Z"/></g>
<g><path style="opacity:0.004" fill="#fff82c" d="M 18.5,34.5 C 18.5,36.5 18.5,38.5 18.5,40.5C 19.6802,44.898 19.6802,48.898 18.5,52.5C 18.6602,54.1992 18.4935,55.8659 18,57.5C 16.6842,54.3117 16.1842,50.9783 16.5,47.5C 19.1667,46.5 19.1667,45.5 16.5,44.5C 16.3359,41.8127 16.5026,39.146 17,36.5C 17.2784,35.5842 17.7784,34.9175 18.5,34.5 Z"/></g>
<g><path style="opacity:1" fill="#eaaf24" d="M 70.5,30.5 C 69.2921,29.7659 67.9587,29.4326 66.5,29.5C 66.3345,33.5138 66.5012,37.5138 67,41.5C 67.3333,38.8333 67.6667,36.1667 68,33.5C 69.0386,34.2438 69.5386,35.2438 69.5,36.5C 68.5386,38.2646 68.2053,40.2646 68.5,42.5C 66.1667,42.5 63.8333,42.5 61.5,42.5C 60.5902,40.9812 59.7568,39.3146 59,37.5C 57.1079,38.6174 56.2746,40.2841 56.5,42.5C 55.5,42.5 54.5,42.5 53.5,42.5C 54.0127,38.447 54.846,34.447 56,30.5C 58.4348,27.7723 60.4348,28.1057 62,31.5C 62.6446,34.5589 63.478,37.5589 64.5,40.5C 65.4909,36.5546 65.8242,32.5546 65.5,28.5C 67.7812,28.0773 69.4479,28.744 70.5,30.5 Z"/></g>
<g><path style="opacity:1" fill="#f5ca23" d="M 75.5,42.5 C 71.3029,42.8063 69.3029,40.8063 69.5,36.5C 69.5386,35.2438 69.0386,34.2438 68,33.5C 67.6667,36.1667 67.3333,38.8333 67,41.5C 66.5012,37.5138 66.3345,33.5138 66.5,29.5C 67.9587,29.4326 69.2921,29.7659 70.5,30.5C 71.322,32.3885 72.1553,34.3885 73,36.5C 73.769,33.9009 73.6023,31.4009 72.5,29C 73.448,28.5172 74.448,28.3505 75.5,28.5C 75.5,33.1667 75.5,37.8333 75.5,42.5 Z"/></g>
<g><path style="opacity:0.008" fill="#ff8c23" d="M 124.5,41.5 C 124.5,43.5 124.5,45.5 124.5,47.5C 123.711,47.2172 123.044,46.7172 122.5,46C 123.641,45.2588 123.641,44.4255 122.5,43.5C 122.855,42.4777 123.522,41.811 124.5,41.5 Z"/></g>
<g><path style="opacity:0.008" fill="#ff881b" d="M 16.5,44.5 C 19.1667,45.5 19.1667,46.5 16.5,47.5C 16.5,46.5 16.5,45.5 16.5,44.5 Z"/></g>
<g><path style="opacity:1" fill="#da8525" d="M 81.5,44.5 C 91.4867,44.8506 101.82,44.8506 112.5,44.5C 112.5,46.1667 112.5,47.8333 112.5,49.5C 104.021,49.0362 95.6881,49.0362 87.5,49.5C 83.351,50.0803 79.6843,49.4136 76.5,47.5C 78.0389,46.2329 79.7056,45.2329 81.5,44.5 Z"/></g>
<g><path style="opacity:1" fill="#c22f25" d="M 99.5,27.5 C 105.335,29.7503 111.335,31.417 117.5,32.5C 119.478,54.3087 115.644,74.9753 106,94.5C 100.212,104.791 92.0449,112.458 81.5,117.5C 86.0133,113.974 88.0133,109.307 87.5,103.5C 86.1667,103.5 84.8333,103.5 83.5,103.5C 84.6085,102.71 85.9419,102.21 87.5,102C 86.3659,100.984 86.6992,100.317 88.5,100C 87.9056,99.5357 87.2389,99.369 86.5,99.5C 88.4346,98.19 90.4346,96.8567 92.5,95.5C 89.656,95.2528 86.8227,94.9195 84,94.5C 83.8333,94 83.6667,93.5 83.5,93C 88.9619,87.2951 88.2952,86.4617 81.5,90.5C 79.8333,90.1667 78.8333,89.1667 78.5,87.5C 79.7545,85.6663 80.4211,83.6663 80.5,81.5C 83.4023,80.4635 85.9023,78.7968 88,76.5C 90.0989,77.2865 92.2655,77.6199 94.5,77.5C 94.2627,78.791 94.596,79.791 95.5,80.5C 96.5849,82.5822 98.0849,82.9156 100,81.5C 100.821,78.4459 100.655,75.4459 99.5,72.5C 98.8933,72.6236 98.56,72.9569 98.5,73.5C 94.6509,73.9807 92.6509,72.314 92.5,68.5C 96.9757,68.1778 98.4757,65.8444 97,61.5C 93.6621,58.6819 89.8288,57.8485 85.5,59C 81.5599,61.5913 77.2265,63.0913 72.5,63.5C 72.5,62.5 72.5,61.5 72.5,60.5C 75.2492,60.7261 77.9159,60.3928 80.5,59.5C 81.8943,57.4181 81.561,55.7514 79.5,54.5C 78.3424,53.0502 78.8424,52.0502 81,51.5C 81.3333,51.8333 81.6667,52.1667 82,52.5C 86.7488,51.6948 91.5821,51.1948 96.5,51C 93.3054,50.8195 90.3054,50.3195 87.5,49.5C 95.6881,49.0362 104.021,49.0362 112.5,49.5C 112.5,47.8333 112.5,46.1667 112.5,44.5C 101.82,44.8506 91.4867,44.8506 81.5,44.5C 79.5168,44.8432 78.1834,44.1765 77.5,42.5C 79.5914,42.6816 81.5914,42.3482 83.5,41.5C 87.3722,38.5863 88.3722,34.9197 86.5,30.5C 87.9145,30.906 89.0812,30.2393 90,28.5C 90.4643,29.0944 90.631,29.7611 90.5,30.5C 89.6307,34.1685 88.6307,37.8352 87.5,41.5C 88.325,42.3857 89.325,42.719 90.5,42.5C 90.244,40.0876 91.244,38.4209 93.5,37.5C 94.4519,39.0453 94.7852,40.712 94.5,42.5C 96.288,42.7852 97.9547,42.4519 99.5,41.5C 98.006,37.1838 96.6726,32.8505 95.5,28.5C 97.099,28.7678 98.4324,28.4345 99.5,27.5 Z"/></g>
<g><path style="opacity:1" fill="#f1c024" d="M 95.5,28.5 C 96.6726,32.8505 98.006,37.1838 99.5,41.5C 97.9547,42.4519 96.288,42.7852 94.5,42.5C 94.7852,40.712 94.4519,39.0453 93.5,37.5C 91.244,38.4209 90.244,40.0876 90.5,42.5C 89.325,42.719 88.325,42.3857 87.5,41.5C 88.6307,37.8352 89.6307,34.1685 90.5,30.5C 91.7791,29.032 93.4458,28.3653 95.5,28.5 Z"/></g>
<g><path style="opacity:1" fill="#c22e25" d="M 39.5,28.5 C 41.1384,32.9126 42.1384,37.5792 42.5,42.5C 45.2788,42.7214 47.9455,42.388 50.5,41.5C 52.3786,41.3932 52.7119,41.8932 51.5,43C 55.0267,43.8075 58.3601,43.6408 61.5,42.5C 63.8333,42.5 66.1667,42.5 68.5,42.5C 68.2053,40.2646 68.5386,38.2646 69.5,36.5C 69.3029,40.8063 71.3029,42.8063 75.5,42.5C 75.5,43.1667 75.5,43.8333 75.5,44.5C 76.404,45.209 76.7373,46.209 76.5,47.5C 79.6843,49.4136 83.351,50.0803 87.5,49.5C 90.3054,50.3195 93.3054,50.8195 96.5,51C 91.5821,51.1948 86.7488,51.6948 82,52.5C 81.6667,52.1667 81.3333,51.8333 81,51.5C 78.8424,52.0502 78.3424,53.0502 79.5,54.5C 76.251,55.8717 73.0843,57.5384 70,59.5C 69.3333,61.1667 69.3333,62.8333 70,64.5C 70.6708,65.2524 71.5041,65.5858 72.5,65.5C 73.1667,66.1667 73.8333,66.8333 74.5,67.5C 70.7294,68.763 67.0628,68.5963 63.5,67C 63.2533,65.1867 62.92,63.3533 62.5,61.5C 57.9099,55.9116 53.9099,56.4116 50.5,63C 51.3656,70.0529 50.1989,70.2196 47,63.5C 46.51,62.2068 46.3433,60.8734 46.5,59.5C 44.8333,59.5 43.1667,59.5 41.5,59.5C 41.5,62.5 41.5,65.5 41.5,68.5C 42.675,68.281 43.675,68.6143 44.5,69.5C 45.9722,72.8054 48.3055,75.3054 51.5,77C 47.7796,78.392 45.7796,77.2253 45.5,73.5C 43.8333,73.5 42.1667,73.5 40.5,73.5C 40.1826,76.5719 40.5159,79.5719 41.5,82.5C 49.8952,82.9635 58.2285,82.1302 66.5,80C 70.0357,77.1228 73.5357,74.2895 77,71.5C 78.221,72.2718 79.221,73.2718 80,74.5C 80.6877,75.3317 80.521,75.9984 79.5,76.5C 78.1585,74.9951 76.4918,74.3285 74.5,74.5C 74.5,77.1667 74.5,79.8333 74.5,82.5C 75.9587,82.5674 77.2921,82.2341 78.5,81.5C 77.9896,85.6797 75.6563,87.6797 71.5,87.5C 70.8333,76.8333 70.1667,76.8333 69.5,87.5C 65.4528,87.4648 62.7861,85.4648 61.5,81.5C 61.1667,82.1667 60.8333,82.8333 60.5,83.5C 63.3232,91.0313 61.3232,92.3647 54.5,87.5C 53.479,88.0016 53.3123,88.6683 54,89.5C 55.4095,90.7875 56.9095,91.9542 58.5,93C 57.3333,94.1667 56.1667,95.3333 55,96.5C 53.0072,94.6218 50.8405,94.2885 48.5,95.5C 48.7093,96.086 49.0426,96.586 49.5,97C 51.7801,97.2326 53.7801,98.066 55.5,99.5C 61.3249,89.7104 69.3249,87.3771 79.5,92.5C 81.5771,94.0758 83.0771,96.0758 84,98.5C 84.6708,99.2524 85.5041,99.5858 86.5,99.5C 87.2389,99.369 87.9056,99.5357 88.5,100C 86.6992,100.317 86.3659,100.984 87.5,102C 85.9419,102.21 84.6085,102.71 83.5,103.5C 80.9837,103.755 78.6504,104.589 76.5,106C 74.5977,108.345 72.5977,110.511 70.5,112.5C 68.3648,109.535 65.6982,107.035 62.5,105C 59.6492,103.711 56.6492,103.211 53.5,103.5C 52.9867,109.307 54.9867,113.974 59.5,117.5C 48.9551,112.458 40.7884,104.791 35,94.5C 25.3662,75.0109 21.5329,54.3443 23.5,32.5C 28.9961,31.6393 34.3294,30.306 39.5,28.5 Z"/></g>
<g><path style="opacity:1" fill="#cb5a25" d="M 44.5,45.5 C 46.2646,44.5386 48.2646,44.2053 50.5,44.5C 50.3573,46.2624 50.6906,47.9291 51.5,49.5C 43.3428,50.8204 35.3428,50.8204 27.5,49.5C 31.5138,49.6655 35.5138,49.4988 39.5,49C 40.8823,44.2945 41.5489,44.4612 41.5,49.5C 44.1667,49.5 46.8333,49.5 49.5,49.5C 49.5432,45.1074 49.0432,44.7741 48,48.5C 47.5172,47.552 47.3505,46.552 47.5,45.5C 46.5,45.5 45.5,45.5 44.5,45.5 Z"/></g>
<g><path style="opacity:1" fill="#df9524" d="M 53.5,49.5 C 53.5,49.1667 53.5,48.8333 53.5,48.5C 53.9046,47.4502 54.5712,47.4502 55.5,48.5C 56.3857,47.675 56.719,46.675 56.5,45.5C 59.6516,44.9586 62.1516,45.9586 64,48.5C 64.4828,47.552 64.6495,46.552 64.5,45.5C 65.5,45.5 66.5,45.5 67.5,45.5C 67.5958,49.3107 68.2624,49.3107 69.5,45.5C 70.4287,46.6888 70.762,48.0222 70.5,49.5C 64.8333,49.5 59.1667,49.5 53.5,49.5 Z"/></g>
<g><path style="opacity:1" fill="#db8925" d="M 44.5,45.5 C 45.5,45.5 46.5,45.5 47.5,45.5C 47.3505,46.552 47.5172,47.552 48,48.5C 49.0432,44.7741 49.5432,45.1074 49.5,49.5C 46.8333,49.5 44.1667,49.5 41.5,49.5C 41.5489,44.4612 40.8823,44.2945 39.5,49C 35.5138,49.4988 31.5138,49.6655 27.5,49.5C 26.5489,48.0813 26.2155,46.4147 26.5,44.5C 32.6309,43.9078 38.4642,44.5745 44,46.5C 44.3988,46.2716 44.5654,45.9382 44.5,45.5 Z"/></g>
<g><path style="opacity:1" fill="#d06925" d="M 75.5,44.5 C 74.962,46.1172 74.6287,47.7839 74.5,49.5C 67.358,50.738 60.358,50.738 53.5,49.5C 59.1667,49.5 64.8333,49.5 70.5,49.5C 70.762,48.0222 70.4287,46.6888 69.5,45.5C 68.2624,49.3107 67.5958,49.3107 67.5,45.5C 66.5,45.5 65.5,45.5 64.5,45.5C 64.6495,46.552 64.4828,47.552 64,48.5C 62.1516,45.9586 59.6516,44.9586 56.5,45.5C 56.719,46.675 56.3857,47.675 55.5,48.5C 54.5712,47.4502 53.9046,47.4502 53.5,48.5C 52.2089,47.4583 52.2089,46.2917 53.5,45C 60.8258,44.5003 68.1591,44.3337 75.5,44.5 Z"/></g>
<g><path style="opacity:1" fill="#c23626" d="M 47.5,36.5 C 50.0182,37.7595 49.8515,39.0928 47,40.5C 46.4209,39.0715 46.5876,37.7382 47.5,36.5 Z"/></g>
<g><path style="opacity:0.004" fill="#fff734" d="M 19.5,67.5 C 17.2933,64.626 17.1267,61.626 19,58.5C 19.498,61.4816 19.6646,64.4816 19.5,67.5 Z"/></g>
<g><path style="opacity:0.016" fill="#fffe3d" d="M 122.5,58.5 C 123.924,61.7696 123.591,64.7696 121.5,67.5C 121.19,64.2869 121.523,61.2869 122.5,58.5 Z"/></g>
<g><path style="opacity:1" fill="#f2c422" d="M 79.5,54.5 C 81.561,55.7514 81.8943,57.4181 80.5,59.5C 77.9159,60.3928 75.2492,60.7261 72.5,60.5C 72.5,61.5 72.5,62.5 72.5,63.5C 77.2265,63.0913 81.5599,61.5913 85.5,59C 89.8288,57.8485 93.6621,58.6819 97,61.5C 98.4757,65.8444 96.9757,68.1778 92.5,68.5C 92.6509,72.314 94.6509,73.9807 98.5,73.5C 99.4682,75.6074 99.8016,77.9407 99.5,80.5C 98.1667,80.5 96.8333,80.5 95.5,80.5C 94.596,79.791 94.2627,78.791 94.5,77.5C 92.2655,77.6199 90.0989,77.2865 88,76.5C 85.9023,78.7968 83.4023,80.4635 80.5,81.5C 79.8333,81.5 79.1667,81.5 78.5,81.5C 77.2921,82.2341 75.9587,82.5674 74.5,82.5C 74.5,79.8333 74.5,77.1667 74.5,74.5C 76.4918,74.3285 78.1585,74.9951 79.5,76.5C 80.521,75.9984 80.6877,75.3317 80,74.5C 79.221,73.2718 78.221,72.2718 77,71.5C 73.5357,74.2895 70.0357,77.1228 66.5,80C 58.2285,82.1302 49.8952,82.9635 41.5,82.5C 40.5159,79.5719 40.1826,76.5719 40.5,73.5C 42.1667,73.5 43.8333,73.5 45.5,73.5C 45.7796,77.2253 47.7796,78.392 51.5,77C 48.3055,75.3054 45.9722,72.8054 44.5,69.5C 43.675,68.6143 42.675,68.281 41.5,68.5C 41.5,65.5 41.5,62.5 41.5,59.5C 43.1667,59.5 44.8333,59.5 46.5,59.5C 46.3433,60.8734 46.51,62.2068 47,63.5C 50.1989,70.2196 51.3656,70.0529 50.5,63C 53.9099,56.4116 57.9099,55.9116 62.5,61.5C 62.92,63.3533 63.2533,65.1867 63.5,67C 67.0628,68.5963 70.7294,68.763 74.5,67.5C 79.4053,66.5546 84.4053,66.2213 89.5,66.5C 91.1667,66.5 92.8333,66.5 94.5,66.5C 94.7135,64.8561 94.3802,63.3561 93.5,62C 88.4115,61.0476 83.7449,61.8809 79.5,64.5C 77.1944,64.9926 74.861,65.3259 72.5,65.5C 71.5041,65.5858 70.6708,65.2524 70,64.5C 69.3333,62.8333 69.3333,61.1667 70,59.5C 73.0843,57.5384 76.251,55.8717 79.5,54.5 Z"/></g>
<g><path style="opacity:1" fill="#cd791b" d="M 79.5,64.5 C 82.8333,65.1667 86.1667,65.8333 89.5,66.5C 84.4053,66.2213 79.4053,66.5546 74.5,67.5C 73.8333,66.8333 73.1667,66.1667 72.5,65.5C 74.861,65.3259 77.1944,64.9926 79.5,64.5 Z"/></g>
<g><path style="opacity:1" fill="#c02b23" d="M 89.5,66.5 C 86.1667,65.8333 82.8333,65.1667 79.5,64.5C 83.7449,61.8809 88.4115,61.0476 93.5,62C 94.3802,63.3561 94.7135,64.8561 94.5,66.5C 92.8333,66.5 91.1667,66.5 89.5,66.5 Z"/></g>
<g><path style="opacity:0.012" fill="#ffd63a" d="M 121.5,67.5 C 121.795,69.7354 121.461,71.7354 120.5,73.5C 120.205,71.2646 120.539,69.2646 121.5,67.5 Z"/></g>
<g><path style="opacity:1" fill="#c43f24" d="M 56.5,69.5 C 58.337,69.6395 58.6704,70.3061 57.5,71.5C 56.7025,71.0431 56.3691,70.3764 56.5,69.5 Z"/></g>
<g><path style="opacity:0.012" fill="#f5cd40" d="M 19.5,67.5 C 20.4614,69.2646 20.7947,71.2646 20.5,73.5C 19.5386,71.7354 19.2053,69.7354 19.5,67.5 Z"/></g>
<g><path style="opacity:0.008" fill="#ffb530" d="M 120.5,73.5 C 120.657,74.8734 120.49,76.2068 120,77.5C 119.235,75.9343 119.402,74.6009 120.5,73.5 Z"/></g>
<g><path style="opacity:1" fill="#d08418" d="M 98.5,73.5 C 98.56,72.9569 98.8933,72.6236 99.5,72.5C 100.655,75.4459 100.821,78.4459 100,81.5C 98.0849,82.9156 96.5849,82.5822 95.5,80.5C 96.8333,80.5 98.1667,80.5 99.5,80.5C 99.8016,77.9407 99.4682,75.6074 98.5,73.5 Z"/></g>
<g><path style="opacity:0.006" fill="#ffdb2a" d="M 20.5,73.5 C 21.1667,74.8333 21.8333,76.1667 22.5,77.5C 23.1667,77.5 23.5,77.8333 23.5,78.5C 23.9595,81.8774 24.6261,85.2107 25.5,88.5C 22.4589,84.0437 20.7923,79.0437 20.5,73.5 Z"/></g>
<g><path style="opacity:0.016" fill="#ffdb2b" d="M 117.5,78.5 C 118.497,78.4701 119.164,78.9701 119.5,80C 119.046,82.0364 118.213,83.8697 117,85.5C 116.982,83.2028 117.149,80.8695 117.5,78.5 Z"/></g>
<g><path style="opacity:1" fill="#dea4a2" d="M 78.5,81.5 C 79.1667,81.5 79.8333,81.5 80.5,81.5C 80.4211,83.6663 79.7545,85.6663 78.5,87.5C 78.8333,89.1667 79.8333,90.1667 81.5,90.5C 88.2952,86.4617 88.9619,87.2951 83.5,93C 83.6667,93.5 83.8333,94 84,94.5C 86.8227,94.9195 89.656,95.2528 92.5,95.5C 90.4346,96.8567 88.4346,98.19 86.5,99.5C 85.5041,99.5858 84.6708,99.2524 84,98.5C 83.0771,96.0758 81.5771,94.0758 79.5,92.5C 69.3249,87.3771 61.3249,89.7104 55.5,99.5C 53.7801,98.066 51.7801,97.2326 49.5,97C 49.0426,96.586 48.7093,96.086 48.5,95.5C 50.8405,94.2885 53.0072,94.6218 55,96.5C 56.1667,95.3333 57.3333,94.1667 58.5,93C 56.9095,91.9542 55.4095,90.7875 54,89.5C 53.3123,88.6683 53.479,88.0016 54.5,87.5C 61.3232,92.3647 63.3232,91.0313 60.5,83.5C 60.8333,82.8333 61.1667,82.1667 61.5,81.5C 62.7861,85.4648 65.4528,87.4648 69.5,87.5C 70.1667,76.8333 70.8333,76.8333 71.5,87.5C 75.6563,87.6797 77.9896,85.6797 78.5,81.5 Z"/></g>
<g><path style="opacity:1" fill="#d37e7c" d="M 65.5,92.5 C 72.5486,90.8685 77.8819,93.0352 81.5,99C 81.1667,99.5 80.8333,100 80.5,100.5C 76.468,94.6588 71.1347,93.1588 64.5,96C 62.981,97.3513 61.6477,98.8513 60.5,100.5C 59.4173,99.635 59.2506,98.635 60,97.5C 61.7297,95.5981 63.563,93.9314 65.5,92.5 Z"/></g>
<g><path style="opacity:1" fill="#ce6965" d="M 67.5,96.5 C 71.7768,96.1419 75.1101,97.6419 77.5,101C 77.1667,101.5 76.8333,102 76.5,102.5C 72.3483,97.2183 68.1817,97.2183 64,102.5C 63.3333,101.5 63.3333,100.5 64,99.5C 65.5185,98.8366 66.6851,97.8366 67.5,96.5 Z"/></g>
<g><path style="opacity:0.004" fill="#ffe030" d="M 106.5,101.5 C 106.833,101.5 107.167,101.5 107.5,101.5C 107.771,103.38 107.104,104.713 105.5,105.5C 105.5,104.833 105.5,104.167 105.5,103.5C 106.338,103.158 106.672,102.492 106.5,101.5 Z"/></g>
<g><path style="opacity:0.012" fill="#feaa54" d="M 104.5,105.5 C 104.833,105.5 105.167,105.5 105.5,105.5C 105.315,106.17 104.981,106.17 104.5,105.5 Z"/></g>
<g><path style="opacity:0.006" fill="#ffe6fc" d="M 38.5,108.5 C 39.1667,108.833 39.8333,109.167 40.5,109.5C 41.1667,109.5 41.5,109.833 41.5,110.5C 42.1667,111.833 43.1667,112.833 44.5,113.5C 44.1034,114.525 43.4368,114.692 42.5,114C 40.5359,112.549 39.2026,110.716 38.5,108.5 Z"/></g>
<g><path style="opacity:1" fill="#e5b7b5" d="M 83.5,103.5 C 84.8333,103.5 86.1667,103.5 87.5,103.5C 88.0133,109.307 86.0133,113.974 81.5,117.5C 79.5395,119.312 77.2061,120.312 74.5,120.5C 71.8333,120.5 69.1667,120.5 66.5,120.5C 63.7594,120.293 61.4261,119.293 59.5,117.5C 54.9867,113.974 52.9867,109.307 53.5,103.5C 56.6492,103.211 59.6492,103.711 62.5,105C 65.6982,107.035 68.3648,109.535 70.5,112.5C 72.5977,110.511 74.5977,108.345 76.5,106C 78.6504,104.589 80.9837,103.755 83.5,103.5 Z"/></g>
<g><path style="opacity:1" fill="#c02d24" d="M 79.5,106.5 C 80.552,106.351 81.552,106.517 82.5,107C 79.3333,110.167 76.1667,113.333 73,116.5C 74.0669,112.571 76.2336,109.238 79.5,106.5 Z"/></g>
<g><path style="opacity:1" fill="#c13229" d="M 57.5,106.5 C 57.56,105.957 57.8933,105.624 58.5,105.5C 63.3869,107.873 66.5536,111.539 68,116.5C 64.6309,112.963 61.1309,109.629 57.5,106.5 Z"/></g>
<g><path style="opacity:0.012" fill="#feaa54" d="M 95.5,114.5 C 95.8333,114.5 96.1667,114.5 96.5,114.5C 96.3147,115.17 95.9813,115.17 95.5,114.5 Z"/></g>
<g><path style="opacity:0.005" fill="#fff525" d="M 47.5,115.5 C 48.1667,116.833 49.1667,117.833 50.5,118.5C 50.1034,119.525 49.4368,119.692 48.5,119C 47.5,118 46.5,117 45.5,116C 46.0944,115.536 46.7611,115.369 47.5,115.5 Z"/></g>
<g><path style="opacity:0.005" fill="#fff11f" d="M 93.5,115.5 C 94.1667,115.5 94.8333,115.5 95.5,115.5C 94.4154,117.587 92.7488,118.92 90.5,119.5C 90.5,119.167 90.5,118.833 90.5,118.5C 91.8333,117.833 92.8333,116.833 93.5,115.5 Z"/></g>
<g><path style="opacity:0.008" fill="#ffe333" d="M 88.5,120.5 C 88.5,120.167 88.5,119.833 88.5,119.5C 89.1667,119.5 89.8333,119.5 90.5,119.5C 90.1583,120.338 89.4916,120.672 88.5,120.5 Z"/></g>
<g><path style="opacity:1" fill="#cb5e4e" d="M 66.5,120.5 C 69.1667,120.5 71.8333,120.5 74.5,120.5C 71.7565,123.059 69.0898,123.059 66.5,120.5 Z"/></g>
<g><path style="opacity:0.012" fill="#ffc6ff" d="M 86.5,121.5 C 86.5,121.167 86.5,120.833 86.5,120.5C 87.1667,120.5 87.8333,120.5 88.5,120.5C 88.1583,121.338 87.4916,121.672 86.5,121.5 Z"/></g>
<g><path style="opacity:0.008" fill="#fffe44" d="M 61.5,125.5 C 60.7611,125.631 60.0944,125.464 59.5,125C 60.4368,124.308 61.1034,124.475 61.5,125.5 Z"/></g>
<g><path style="opacity:0.012" fill="#ffc647" d="M 79.5,125.5 C 79.8966,124.475 80.5632,124.308 81.5,125C 80.9056,125.464 80.2389,125.631 79.5,125.5 Z"/></g>
<g><path style="opacity:0.016" fill="#ffaa27" d="M 61.5,125.5 C 62.791,125.263 63.791,125.596 64.5,126.5C 63.209,126.737 62.209,126.404 61.5,125.5 Z"/></g>
<g><path style="opacity:0.016" fill="#ffaa27" d="M 76.5,126.5 C 77.209,125.596 78.209,125.263 79.5,125.5C 78.791,126.404 77.791,126.737 76.5,126.5 Z"/></g>
</svg>
